HIERARCHY
ROOT Hips
{
  OFFSET 5.80788e-005 67.184 3.4734
  CHANNELS 6 Xposition Yposition Zposition Zrotation Xrotation Yrotation
  JOINT Chest
  {
    OFFSET 0 8.7983 -4.7612
    CHANNELS 6 Xposition Yposition Zposition Zrotation Xrotation Yrotation
    JOINT Chest2
    {
      OFFSET 0 8.0291 0.4195
      CHANNELS 6 Xposition Yposition Zposition Zrotation Xrotation Yrotation
      JOINT Chest3
      {
        OFFSET 0 9.9351 -2.2114
        CHANNELS 6 Xposition Yposition Zposition Zrotation Xrotation Yrotation
        JOINT Neck
        {
          OFFSET 0 22.3885 -0.4656
          CHANNELS 6 Xposition Yposition Zposition Zrotation Xrotation Yrotation
          JOINT Head
          {
            OFFSET -0.0001 12.643 3.4389
            CHANNELS 6 Xposition Yposition Zposition Zrotation Xrotation Yrotation
            End Site
            {
              OFFSET 0.0001 17.6655 0.5274
            }
          }
        }
        JOINT LeftCollar
        {
          OFFSET 2.2603 21.606 7.4023
          CHANNELS 6 Xposition Yposition Zposition Zrotation Xrotation Yrotation
          JOINT LeftShoulder
          {
            OFFSET 13.5163 -1.1332 -5.0146
            CHANNELS 6 Xposition Yposition Zposition Zrotation Xrotation Yrotation
            JOINT LeftElbow
            {
              OFFSET -0.0995 -28.05 -0.2431
              CHANNELS 6 Xposition Yposition Zposition Zrotation Xrotation Yrotation
              JOINT LeftWrist
              {
                OFFSET 0.0679 -23.3996 -0.1402
                CHANNELS 6 Xposition Yposition Zposition Zrotation Xrotation Yrotation
                JOINT LeftFinger1
                {
                  OFFSET 0.7932 -9.069 2.5189
                  CHANNELS 6 Xposition Yposition Zposition Zrotation Xrotation Yrotation
                  JOINT LeftFinger11
                  {
                    OFFSET -0.8272 -3.3923 0.5977
                    CHANNELS 6 Xposition Yposition Zposition Zrotation Xrotation Yrotation
                    JOINT LeftFinger12
                    {
                      OFFSET -0.5649 -2.3158 0.4082
                      CHANNELS 6 Xposition Yposition Zposition Zrotation Xrotation Yrotation
                      End Site
                      {
                        OFFSET -0.4919 -1.6479 0.2673
                      }
                    }
                  }
                }
                JOINT LeftFinger2
                {
                  OFFSET 0.9159 -9.2044 0.2193
                  CHANNELS 6 Xposition Yposition Zposition Zrotation Xrotation Yrotation
                  JOINT LeftFinger21
                  {
                    OFFSET 0.0117 -4.1944 -0.0248
                    CHANNELS 6 Xposition Yposition Zposition Zrotation Xrotation Yrotation
                    JOINT LeftFinger22
                    {
                      OFFSET 0.0071 -2.3249 -0.0142
                      CHANNELS 6 Xposition Yposition Zposition Zrotation Xrotation Yrotation
                      End Site
                      {
                        OFFSET -0.1475 -2.0882 0.0028
                      }
                    }
                  }
                }
                JOINT LeftFinger3
                {
                  OFFSET 0.6113 -8.7231 -2.0637
                  CHANNELS 6 Xposition Yposition Zposition Zrotation Xrotation Yrotation
                  JOINT LeftFinger31
                  {
                    OFFSET -0.1927 -3.8059 -0.2383
                    CHANNELS 6 Xposition Yposition Zposition Zrotation Xrotation Yrotation
                    JOINT LeftFinger32
                    {
                      OFFSET -0.1091 -2.1688 -0.1362
                      CHANNELS 6 Xposition Yposition Zposition Zrotation Xrotation Yrotation
                      End Site
                      {
                        OFFSET -0.2358 -1.9176 -0.0906
                      }
                    }
                  }
                }
                JOINT LeftFinger4
                {
                  OFFSET -0.6151 -8.0947 -3.5641
                  CHANNELS 6 Xposition Yposition Zposition Zrotation Xrotation Yrotation
                  JOINT LeftFinger41
                  {
                    OFFSET -0.4882 -2.341 -0.6462
                    CHANNELS 6 Xposition Yposition Zposition Zrotation Xrotation Yrotation
                    JOINT LeftFinger42
                    {
                      OFFSET -0.3575 -1.7167 -0.4742
                      CHANNELS 6 Xposition Yposition Zposition Zrotation Xrotation Yrotation
                      End Site
                      {
                        OFFSET -0.4187 -1.5237 -0.3496
                      }
                    }
                  }
                }
                JOINT LeftFinger0
                {
                  OFFSET -1.42 -1.8761 1.4223
                  CHANNELS 6 Xposition Yposition Zposition Zrotation Xrotation Yrotation
                  JOINT LeftFinger01
                  {
                    OFFSET -1.1471 -3.4929 2.6334
                    CHANNELS 6 Xposition Yposition Zposition Zrotation Xrotation Yrotation
                    JOINT LeftFinger02
                    {
                      OFFSET -0.823 -2.3 1.6571
                      CHANNELS 6 Xposition Yposition Zposition Zrotation Xrotation Yrotation
                      End Site
                      {
                        OFFSET -0.5822 -1.6914 1.1582
                      }
                    }
                  }
                }
              }
            }
          }
        }
        JOINT RightCollar
        {
          OFFSET -2.2603 21.606 7.4023
          CHANNELS 6 Xposition Yposition Zposition Zrotation Xrotation Yrotation
          JOINT RightShoulder
          {
            OFFSET -13.5187 -1.1334 -5.0155
            CHANNELS 6 Xposition Yposition Zposition Zrotation Xrotation Yrotation
            JOINT RightElbow
            {
              OFFSET 0.0994 -28.0499 -0.2431
              CHANNELS 6 Xposition Yposition Zposition Zrotation Xrotation Yrotation
              JOINT RightWrist
              {
                OFFSET -0.0679 -23.3996 -0.1402
                CHANNELS 6 Xposition Yposition Zposition Zrotation Xrotation Yrotation
                JOINT RightFinger1
                {
                  OFFSET -0.7932 -9.0691 2.5189
                  CHANNELS 6 Xposition Yposition Zposition Zrotation Xrotation Yrotation
                  JOINT RightFinger11
                  {
                    OFFSET 0.8272 -3.3923 0.5977
                    CHANNELS 6 Xposition Yposition Zposition Zrotation Xrotation Yrotation
                    JOINT RightFinger12
                    {
                      OFFSET 0.565 -2.3158 0.4082
                      CHANNELS 6 Xposition Yposition Zposition Zrotation Xrotation Yrotation
                      End Site
                      {
                        OFFSET 0.4919 -1.6479 0.2673
                      }
                    }
                  }
                }
                JOINT RightFinger2
                {
                  OFFSET -0.916 -9.2044 0.2193
                  CHANNELS 6 Xposition Yposition Zposition Zrotation Xrotation Yrotation
                  JOINT RightFinger21
                  {
                    OFFSET -0.0117 -4.1944 -0.0248
                    CHANNELS 6 Xposition Yposition Zposition Zrotation Xrotation Yrotation
                    JOINT RightFinger22
                    {
                      OFFSET -0.0071 -2.3249 -0.0142
                      CHANNELS 6 Xposition Yposition Zposition Zrotation Xrotation Yrotation
                      End Site
                      {
                        OFFSET 0.1475 -2.0882 0.0028
                      }
                    }
                  }
                }
                JOINT RightFinger3
                {
                  OFFSET -0.6113 -8.7231 -2.0637
                  CHANNELS 6 Xposition Yposition Zposition Zrotation Xrotation Yrotation
                  JOINT RightFinger31
                  {
                    OFFSET 0.1927 -3.8059 -0.2383
                    CHANNELS 6 Xposition Yposition Zposition Zrotation Xrotation Yrotation
                    JOINT RightFinger32
                    {
                      OFFSET 0.1091 -2.1688 -0.1362
                      CHANNELS 6 Xposition Yposition Zposition Zrotation Xrotation Yrotation
                      End Site
                      {
                        OFFSET 0.2358 -1.9176 -0.0906
                      }
                    }
                  }
                }
                JOINT RightFinger4
                {
                  OFFSET 0.6151 -8.0947 -3.564
                  CHANNELS 6 Xposition Yposition Zposition Zrotation Xrotation Yrotation
                  JOINT RightFinger41
                  {
                    OFFSET 0.4882 -2.341 -0.6462
                    CHANNELS 6 Xposition Yposition Zposition Zrotation Xrotation Yrotation
                    JOINT RightFinger42
                    {
                      OFFSET 0.3574 -1.7166 -0.4742
                      CHANNELS 6 Xposition Yposition Zposition Zrotation Xrotation Yrotation
                      End Site
                      {
                        OFFSET 0.4187 -1.5237 -0.3496
                      }
                    }
                  }
                }
                JOINT RightFinger0
                {
                  OFFSET 1.4199 -1.8761 1.4221
                  CHANNELS 6 Xposition Yposition Zposition Zrotation Xrotation Yrotation
                  JOINT RightFinger01
                  {
                    OFFSET 1.1472 -3.4929 2.6336
                    CHANNELS 6 Xposition Yposition Zposition Zrotation Xrotation Yrotation
                    JOINT RightFinger02
                    {
                      OFFSET 0.8229 -2.3 1.6571
                      CHANNELS 6 Xposition Yposition Zposition Zrotation Xrotation Yrotation
                      End Site
                      {
                        OFFSET 0.5822 -1.6914 1.1582
                      }
                    }
                  }
                }
              }
            }
          }
        }
      }
    }
  }
  JOINT RightHip
  {
    OFFSET -9.412 3.9771 -0.7758
    CHANNELS 6 Xposition Yposition Zposition Zrotation Xrotation Yrotation
    JOINT RightKnee
    {
      OFFSET -0.7531 -40.938 0
      CHANNELS 6 Xposition Yposition Zposition Zrotation Xrotation Yrotation
      JOINT RightAnkle
      {
        OFFSET 0 -40.1986 0
        CHANNELS 6 Xposition Yposition Zposition Zrotation Xrotation Yrotation
        JOINT RightToe
        {
          OFFSET 0 -4.4182 9.239
          CHANNELS 6 Xposition Yposition Zposition Zrotation Xrotation Yrotation
          End Site
          {
            OFFSET 0 0 6.1981
          }
        }
      }
    }
  }
  JOINT LeftHip
  {
    OFFSET 9.4119 3.9773 -0.7758
    CHANNELS 6 Xposition Yposition Zposition Zrotation Xrotation Yrotation
    JOINT LeftKnee
    {
      OFFSET 0.7532 -40.9383 0
      CHANNELS 6 Xposition Yposition Zposition Zrotation Xrotation Yrotation
      JOINT LeftAnkle
      {
        OFFSET 0 -40.1986 0
        CHANNELS 6 Xposition Yposition Zposition Zrotation Xrotation Yrotation
        JOINT LeftToe
        {
          OFFSET 0 -4.4182 9.239
          CHANNELS 6 Xposition Yposition Zposition Zrotation Xrotation Yrotation
          End Site
          {
            OFFSET 0 0 6.1981
          }
        }
      }
    }
  }
}
MOTION
Frames:	4
Frame Time:	0.0333333
39.93 18.1107 11.3376 -1.02404e-007 -64.0139 -1.11043e-007 7.10543e-015 8.7983 -4.7612 -1.81444 -5.86048 -0.71263 7.10543e-015 8.0291 0.4195 -3.73187 -11.6947 -1.62539 0 9.9351 -2.2114 -3.73189 -11.6948 -1.62539 0 22.3885 -0.4656 -18.7861 2.83435 1.99386 -0.0001 12.643 3.4389 -1.2967 -21.8962 0.726659 2.2603 21.606 7.4023 14.0034 6.52161 6.71701 13.5163 -1.1332 -5.0146 98.7941 24.3814 -45.6795 -0.0995 -28.05 -0.2431 0.636095 -7.50953 -41.0155 0.0679 -23.3996 -0.1402 10.8709 -16.897 5.79531 0.7932 -9.069 2.5189 1.98785e-015 0 1.59028e-015 -0.8272 -3.3923 0.5977 3.77691e-015 7.95139e-016 3.18055e-015 -0.5649 -2.3158 0.4082 -0 0 1.59028e-015 0.9159 -9.2044 0.2193 1.98785e-015 0 1.59028e-015 0.0117 -4.1944 -0.0248 -0.0128397 0.00232789 8.56639e-005 0.0071 -2.3249 -0.0142 2.5842e-015 -7.95139e-016 -1.59028e-015 0.6113 -8.7231 -2.0637 1.98785e-015 0 1.59028e-015 -0.1927 -3.8059 -0.2383 -0.016026 0.00298998 0.000856553 -0.1091 -2.1688 -0.1362 -1.33223e-005 1.7717e-006 2.47274e-007 -0.6151 -8.0947 -3.5641 1.98785e-015 0 1.59028e-015 -0.4882 -2.341 -0.6462 -0.0125776 0.00311939 0.00282609 -0.3575 -1.7167 -0.4742 4.13713e-006 -3.91317e-007 -2.7617e-007 -1.42 -1.8761 1.4223 1.98785e-015 0 1.59028e-015 -1.1471 -3.4929 2.6334 3.77691e-015 7.95139e-016 3.18055e-015 -0.823 -2.3 1.6571 -0 0 1.59028e-015 -2.2603 21.606 7.4023 -12.322 5.42851 -9.07102 -13.5187 -1.1334 -5.0155 -94.0871 14.0596 43.6889 0.0994 -28.0499 -0.2431 -2.30584 -0.833317 40.8768 -0.0679 -23.3996 -0.1402 -3.88818 -21.2784 0.373877 -0.7932 -9.0691 2.5189 2.78299e-015 -4.77083e-015 4.77083e-015 0.8272 -3.3923 0.5977 5.36719e-015 -2.38542e-015 4.77083e-015 0.565 -2.3158 0.4082 -1.39149e-015 -7.95139e-016 6.36111e-015 -0.916 -9.2044 0.2193 2.78299e-015 -4.77083e-015 4.77083e-015 -0.0117 -4.1944 -0.0248 0.0129464 0.00231635 -8.7061e-005 -0.0071 -2.3249 -0.0142 -1.98785e-016 3.97569e-015 -3.18055e-015 -0.6113 -8.7231 -2.0637 2.78299e-015 -4.77083e-015 4.77083e-015 0.1927 -3.8059 -0.2383 0.0163017 0.00302995 -0.000875503 0.1091 -2.1688 -0.1362 5.56597e-015 -7.95139e-016 3.18055e-015 0.6151 -8.0947 -3.564 2.78299e-015 -4.77083e-015 4.77083e-015 0.4882 -2.341 -0.6462 0.014587 0.00367704 -0.0032638 0.3574 -1.7166 -0.4742 -3.18055e-015 -1.59028e-015 3.18055e-015 1.4199 -1.8761 1.4221 2.78299e-015 -4.77083e-015 4.77083e-015 1.1472 -3.4929 2.6336 5.36719e-015 -2.38542e-015 4.77083e-015 0.8229 -2.3 1.6571 -1.39149e-015 -7.95139e-016 6.36111e-015 -9.412 3.9771 -0.7758 -42.7448 17.5657 -41.1594 -0.7531 -40.938 1.77636e-015 -144.177 23.1484 177.202 0 -40.1986 0 24.8537 29.3466 -58.3537 -3.55271e-015 -4.4182 9.239 7.00798e-007 -5.01083e-006 2.23163e-006 9.4119 3.9773 -0.7758 48.5205 16.999 31.9729 0.7532 -40.9383 7.10543e-015 135.335 26.7892 -175.262 1.42109e-014 -40.1986 0 -28.2972 37.5001 27.0191 0 -4.4182 9.239 1.80499e-007 8.58238e-006 -3.34268e-006 
39.93 18.1571 11.3376 -9.97651e-008 -64.0139 -4.25137e-007 7.10543e-015 8.7983 -4.7612 -1.81377 -5.95302 -0.721447 0 8.0291 0.4195 -3.73361 -11.8795 -1.64656 0 9.9351 -2.2114 -3.73363 -11.8795 -1.64657 -7.10543e-015 22.3885 -0.4656 -18.7895 3.0238 2.05837 -0.0001 12.643 3.4389 -1.29402 -21.6033 0.733772 2.2603 21.606 7.4023 14.1326 6.56504 6.59875 13.5163 -1.1332 -5.0146 98.794 24.3813 -45.6795 -0.0995 -28.05 -0.2431 0.636075 -7.50943 -41.0155 0.0679 -23.3996 -0.1402 10.7489 -16.9902 5.41966 0.7932 -9.069 2.5189 9.93923e-016 7.95139e-016 -1.59028e-015 -0.8272 -3.3923 0.5977 1.19271e-015 2.38542e-015 -0 -0.5649 -2.3158 0.4082 2.18663e-015 2.38542e-015 -0 0.9159 -9.2044 0.2193 9.93923e-016 7.95139e-016 -1.59028e-015 0.0117 -4.1944 -0.0248 -0.0127937 0.00232252 8.29998e-005 0.0071 -2.3249 -0.0142 1.98785e-016 -7.95139e-016 -1.59028e-015 0.6113 -8.7231 -2.0637 9.93923e-016 7.95139e-016 -1.59028e-015 -0.1927 -3.8059 -0.2383 -0.0160743 0.00300241 0.000857302 -0.1091 -2.1688 -0.1362 1.04462e-007 -4.00568e-008 8.35325e-007 -0.6151 -8.0947 -3.5641 9.93923e-016 7.95139e-016 -1.59028e-015 -0.4882 -2.341 -0.6462 -0.0125934 0.00312399 0.00282553 -0.3575 -1.7167 -0.4742 1.04451e-007 4.31611e-007 8.35321e-007 -1.42 -1.8761 1.4223 9.93923e-016 7.95139e-016 -1.59028e-015 -1.1471 -3.4929 2.6334 1.19271e-015 2.38542e-015 -0 -0.823 -2.3 1.6571 2.18663e-015 2.38542e-015 -0 -2.2603 21.606 7.4023 -12.4684 5.46054 -8.87388 -13.5187 -1.1334 -5.0155 -94.0871 14.0596 43.6889 0.0994 -28.0499 -0.2431 -2.30583 -0.833321 40.8768 -0.0679 -23.3996 -0.1402 -3.7533 -21.3156 0.746843 -0.7932 -9.0691 2.5189 4.37326e-015 -4.26948e-007 3.18055e-015 0.8272 -3.3923 0.5977 4.77083e-015 4.26948e-007 -4.77083e-015 0.565 -2.3158 0.4082 1.07344e-014 -4.26948e-007 3.18055e-015 -0.916 -9.2044 0.2193 4.37326e-015 -4.26948e-007 3.18055e-015 -0.0117 -4.1944 -0.0248 0.0129672 0.00231964 -8.6736e-005 -0.0071 -2.3249 -0.0142 -2.38542e-015 2.38542e-015 -1.59028e-015 -0.6113 -8.7231 -2.0637 4.37326e-015 -4.26948e-007 3.18055e-015 0.1927 -3.8059 -0.2383 0.0163321 0.0030338 -0.000872935 0.1091 -2.1688 -0.1362 1.49089e-014 -4.2695e-007 -1.59028e-015 0.6151 -8.0947 -3.564 4.37326e-015 -4.26948e-007 3.18055e-015 0.4882 -2.341 -0.6462 0.0145863 0.00367904 -0.0032647 0.3574 -1.7166 -0.4742 5.75727e-006 8.94967e-007 -1.10127e-006 1.4199 -1.8761 1.4221 4.37326e-015 -4.26948e-007 3.18055e-015 1.1472 -3.4929 2.6336 4.77083e-015 4.26948e-007 -4.77083e-015 0.8229 -2.3 1.6571 1.07344e-014 -4.26948e-007 3.18055e-015 -9.412 3.9771 -0.7758 -42.7381 17.5609 -41.174 -0.7531 -40.938 -1.77636e-015 -144.183 23.1451 177.202 0 -40.1986 -3.55271e-015 24.984 29.2655 -58.4186 0 -4.4182 9.239 2.2571e-006 -2.96144e-006 2.26799e-006 9.4119 3.9773 -0.7758 48.5143 16.9966 31.9839 0.7532 -40.9383 -7.10543e-015 135.342 26.7865 -175.265 0 -40.1986 3.55271e-015 -28.4256 37.4171 27.0923 0 -4.4182 9.239 -4.16318e-006 8.65825e-006 -9.0829e-006 
39.93 18.2035 11.3376 -1.38092e-008 -64.0139 -3.86697e-007 0 8.7983 -4.7612 -1.8131 -6.04558 -0.730262 7.10543e-015 8.0291 0.4195 -3.7354 -12.0643 -1.66775 0 9.9351 -2.2114 -3.73541 -12.0643 -1.66776 -1.42109e-014 22.3885 -0.4656 -18.793 3.2133 2.12293 -0.0001 12.643 3.4389 -1.29139 -21.3104 0.740842 2.2603 21.606 7.4023 14.262 6.60825 6.48039 13.5163 -1.1332 -5.0146 98.7941 24.3814 -45.6795 -0.0995 -28.05 -0.2431 0.636064 -7.50953 -41.0155 0.0679 -23.3996 -0.1402 10.6261 -17.0827 5.04364 0.7932 -9.069 2.5189 1.05532e-007 4.32256e-009 8.34994e-007 -0.8272 -3.3923 0.5977 -4.15277e-006 3.04775e-006 2.58321e-007 -0.5649 -2.3158 0.4082 -5.96354e-016 -3.18055e-015 1.59028e-015 0.9159 -9.2044 0.2193 1.05532e-007 4.32256e-009 8.34994e-007 0.0117 -4.1944 -0.0248 -0.0128316 0.00232991 8.40707e-005 0.0071 -2.3249 -0.0142 5.96354e-016 3.18055e-015 -0 0.6113 -8.7231 -2.0637 1.05532e-007 4.32256e-009 8.34994e-007 -0.1927 -3.8059 -0.2383 -0.0160103 0.00299033 0.000854061 -0.1091 -2.1688 -0.1362 -5.75457e-006 1.63275e-006 7.34703e-007 -0.6151 -8.0947 -3.5641 1.05532e-007 4.32256e-009 8.34994e-007 -0.4882 -2.341 -0.6462 -0.0126371 0.00313514 0.00283674 -0.3575 -1.7167 -0.4742 3.37934e-015 2.38542e-015 3.18055e-015 -1.42 -1.8761 1.4223 1.05532e-007 4.32256e-009 8.34994e-007 -1.1471 -3.4929 2.6334 -4.15277e-006 3.04775e-006 2.58321e-007 -0.823 -2.3 1.6571 -5.96354e-016 -3.18055e-015 1.59028e-015 -2.2603 21.606 7.4023 -12.6149 5.49216 -8.67662 -13.5187 -1.1334 -5.0155 -94.0871 14.0596 43.689 0.0994 -28.0499 -0.2431 -2.30584 -0.833326 40.8768 -0.0679 -23.3996 -0.1402 -3.61811 -21.3519 1.11999 -0.7932 -9.0691 2.5189 -8.15017e-015 -1.59028e-015 -0 0.8272 -3.3923 0.5977 -7.7526e-015 -7.95139e-016 -1.59028e-015 0.565 -2.3158 0.4082 -7.55382e-015 -1.59028e-015 -1.59028e-015 -0.916 -9.2044 0.2193 -8.15017e-015 -1.59028e-015 -0 -0.0117 -4.1944 -0.0248 0.0129429 0.00231518 -8.65084e-005 -0.0071 -2.3249 -0.0142 1.39149e-015 7.95139e-016 4.77083e-015 -0.6113 -8.7231 -2.0637 -8.15017e-015 -1.59028e-015 -0 0.1927 -3.8059 -0.2383 0.0163317 0.00303335 -0.000873179 0.1091 -2.1688 -0.1362 8.17509e-008 4.49779e-007 -8.37521e-007 0.6151 -8.0947 -3.564 -8.15017e-015 -1.59028e-015 -0 0.4882 -2.341 -0.6462 0.0146002 0.00368397 -0.0032623 0.3574 -1.7166 -0.4742 -2.5842e-015 7.95139e-016 -1.59028e-015 1.4199 -1.8761 1.4221 -8.15017e-015 -1.59028e-015 -0 1.1472 -3.4929 2.6336 -7.7526e-015 -7.95139e-016 -1.59028e-015 0.8229 -2.3 1.6571 -7.55382e-015 -1.59028e-015 -1.59028e-015 -9.412 3.9771 -0.7758 -42.7313 17.5559 -41.1885 -0.7531 -40.938 8.88178e-016 -144.19 23.1418 177.203 7.10543e-015 -40.1986 1.77636e-015 25.1142 29.1841 -58.4831 3.55272e-015 -4.4182 9.239 -9.01426e-007 -1.53939e-006 3.68624e-006 9.4119 3.9773 -0.7758 48.5081 16.9942 31.995 0.7532 -40.9383 0 135.349 26.7837 -175.268 0 -40.1986 3.55271e-015 -28.5538 37.334 27.1653 7.10543e-015 -4.4182 9.239 8.21021e-007 6.06838e-006 3.13651e-007 
39.93 18.25 11.3376 3.95352e-007 -64.0139 4.36192e-007 7.10543e-015 8.7983 -4.7612 -1.81242 -6.13809 -0.739069 0 8.0291 0.4195 -3.73721 -12.2489 -1.68895 0 9.9351 -2.2114 -3.73722 -12.249 -1.68895 0 22.3885 -0.4656 -18.7968 3.40268 2.18747 -0.0001 12.643 3.4389 -1.2888 -21.0175 0.747895 2.2603 21.606 7.4023 14.3914 6.65112 6.36192 13.5163 -1.1332 -5.0146 98.794 24.3813 -45.6795 -0.0995 -28.05 -0.2431 0.636082 -7.50943 -41.0155 0.0679 -23.3996 -0.1402 10.5027 -17.1744 4.66726 0.7932 -9.069 2.5189 -1.78906e-015 -1.59028e-015 3.18055e-015 -0.8272 -3.3923 0.5977 9.93923e-016 -7.95139e-016 -0 -0.5649 -2.3158 0.4082 3.37934e-015 0 -1.59028e-015 0.9159 -9.2044 0.2193 -1.78906e-015 -1.59028e-015 3.18055e-015 0.0117 -4.1944 -0.0248 -0.0127909 0.00231848 8.58858e-005 0.0071 -2.3249 -0.0142 -3.97569e-016 0 1.59028e-015 0.6113 -8.7231 -2.0637 -1.78906e-015 -1.59028e-015 3.18055e-015 -0.1927 -3.8059 -0.2383 -0.0160375 0.00299293 0.000856063 -0.1091 -2.1688 -0.1362 3.97569e-016 -1.59028e-015 -0 -0.6151 -8.0947 -3.5641 -1.78906e-015 -1.59028e-015 3.18055e-015 -0.4882 -2.341 -0.6462 -0.0125141 0.00310572 0.00281207 -0.3575 -1.7167 -0.4742 1.98785e-015 0 -6.36111e-015 -1.42 -1.8761 1.4223 -1.78906e-015 -1.59028e-015 3.18055e-015 -1.1471 -3.4929 2.6334 9.93923e-016 -7.95139e-016 -0 -0.823 -2.3 1.6571 3.37934e-015 0 -1.59028e-015 -2.2603 21.606 7.4023 -12.7616 5.52319 -8.4793 -13.5187 -1.1334 -5.0155 -94.0871 14.0596 43.689 0.0994 -28.0499 -0.2431 -2.30585 -0.833307 40.8768 -0.0679 -23.3996 -0.1402 -3.48267 -21.3874 1.49328 -0.7932 -9.0691 2.5189 1.11899e-005 1.72629e-006 1.16219e-006 0.8272 -3.3923 0.5977 3.37934e-015 -4.27269e-007 -0 0.565 -2.3158 0.4082 1.39149e-015 -1.59028e-015 -1.59028e-015 -0.916 -9.2044 0.2193 1.11899e-005 1.72629e-006 1.16219e-006 -0.0117 -4.1944 -0.0248 0.0129479 0.00231605 -8.69262e-005 -0.0071 -2.3249 -0.0142 -7.95139e-016 -2.38542e-015 -0 -0.6113 -8.7231 -2.0637 1.11899e-005 1.72629e-006 1.16219e-006 0.1927 -3.8059 -0.2383 0.0163452 0.00303632 -0.000872972 0.1091 -2.1688 -0.1362 4.37326e-015 -1.59028e-015 -0 0.6151 -8.0947 -3.564 1.11899e-005 1.72629e-006 1.16219e-006 0.4882 -2.341 -0.6462 0.0145895 0.00367764 -0.00325845 0.3574 -1.7166 -0.4742 -2.42758e-005 -3.63295e-006 -2.23378e-006 1.4199 -1.8761 1.4221 1.11899e-005 1.72629e-006 1.16219e-006 1.1472 -3.4929 2.6336 3.37934e-015 -4.27269e-007 -0 0.8229 -2.3 1.6571 1.39149e-015 -1.59028e-015 -1.59028e-015 -9.412 3.9771 -0.7758 -42.7246 17.551 -41.203 -0.7531 -40.938 1.77636e-015 -144.196 23.1385 177.203 1.77636e-015 -40.1986 1.77636e-015 25.2442 29.1028 -58.5475 3.55272e-015 -4.4182 9.239 4.28561e-006 -8.47301e-006 1.2167e-006 9.4119 3.9773 -0.7758 48.5018 16.9917 32.0061 0.7532 -40.9383 0 135.356 26.7809 -175.27 7.10543e-015 -40.1986 0 -28.6817 37.2507 27.2379 7.10543e-015 -4.4182 9.239 -1.06464e-006 -5.30342e-007 1.33168e-006 
